<svg width="400" height="180" viewBox="0 0 400 180" fill="none" xmlns="http://www.w3.org/2000/svg">
    <!-- Define colors -->
    <defs>
        <style>
            .crystal-purple { fill: #6c31e3; }
            .crystal-gold { fill: #ffa558; }
        </style>
    </defs>

    <!-- First Crystal -->
    <g id="crystal-left" transform="translate(0, 0)">
        <!-- Top-left main facet -->
        <path id="crystal-left-top" class="crystal-purple" d="M49.775 105.089C54.3828 103.715 61.8069 101.605 70.3434 101.082C65.2222 88.1449 63.986 76.8242 64.9803 66.7442C66.1285 55.1033 70.23 45.3874 74.228 37.1201C75.0811 35.3561 75.9012 33.7135 76.6879 32.1378C77.8017 29.9069 78.8486 27.81 79.8278 25.6916C81.4579 22.1652 82.6674 19.051 83.2791 16.1576C83.8806 13.3125 83.8838 10.7715 83.1727 8.3342C82.4607 5.89352 80.9475 3.26635 78.0704 0.386692C74.3134 -0.587559 70.1448 0.267767 67.0197 3.08162L29.9298 36.4772C27.861 38.34 26.503 40.8642 26.0879 43.6182L22.8899 64.8384C27.9185 69.2873 40.33 82.2201 47.8789 100.165C48.5525 101.766 49.1875 103.408 49.775 105.089Z"/>

        <!-- Lower-left facet -->
        <path id="crystal-left-bottom-left" class="crystal-purple" d="M21.3902 74.5293C21.2153 75.2761 20.9692 76.0051 20.6549 76.7063L1.05225 120.436C-0.961131 124.928 -0.0336421 130.194 3.39276 133.726L34.2418 165.523C49.9952 142.262 47.6984 120.379 40.5026 103.274C35.0465 90.3037 26.777 80.1526 21.3902 74.5293Z"/>

        <!-- Bottom/base section -->
        <path id="crystal-left-base" class="crystal-purple" d="M41.3687 169.269C41.9093 169.355 42.4575 169.407 43.0096 169.424C48.864 169.6 58.7098 170.109 66.6947 171.582C73.2088 172.783 86.1213 176.397 96.747 179.505C104.855 181.877 113.211 175.396 114.387 167.024C115.245 160.917 116.855 154.009 119.821 147.677L119.753 147.702C114.73 133.682 108.34 124.629 101.641 118.849C94.9619 113.086 87.7708 110.397 80.8276 109.42C69.2835 107.795 58.7071 110.832 52.0453 112.791C56.0353 129.428 54.8074 149.004 41.3687 169.269Z"/>

        <!-- Right side facet -->
        <path id="crystal-left-gold-facet" class="crystal-gold" d="M124.96 139.034C131.626 128.965 136.375 121.134 138.881 116.888C140.135 114.764 139.907 112.102 138.423 110.133C134.554 105.002 127.152 94.5755 123.12 84.9218C118.973 74.9962 118.355 59.5866 118.319 52.081C118.306 49.2279 117.402 46.4413 115.639 44.1994L91.6762 13.73C91.5918 15.1034 91.3946 16.4659 91.1093 17.8158C90.3118 21.5882 88.8073 25.3437 87.0916 29.0552C86.086 31.2306 84.9238 33.5612 83.7497 35.9157C82.9682 37.4827 82.1814 39.0607 81.432 40.6102C77.5579 48.6212 73.9528 57.3151 72.9451 67.5313C72.011 77.0006 73.2894 88.014 79.0482 101.162C80.0074 101.243 80.9727 101.351 81.9422 101.487C90.2067 102.651 98.8807 105.891 106.866 112.781C113.73 118.704 119.932 127.19 124.96 139.034Z"/>
    </g>

    <!-- Connecting Line -->
    <line id="connection" x1="125" y1="105" x2="300" y2="105" stroke="#ffa558" stroke-width="6"/>

    <!-- Relay Logo -->
    <g id="relay-text" transform="translate(144, 44) scale(0.6)">
        <path id="relay-path" class="crystal-gold" d="m 128.6402,84.2167 c -1.8219,-0.6498 -2.8316,-1.9996 -2.8205,-3.7707 0.019,-2.9692 4.2679,-9.1564 8.5532,-12.4538 0.8896,-0.6846 3.2865,-2.0796 5.3264,-3.1002 l 3.7089,-1.8555 1.1034,-2.1157 c 0.6069,-1.1636 1.0788,-2.1403 1.0487,-2.1704 -0.03,-0.03 -0.7517,0.2969 -1.6037,0.7266 -1.7893,0.9026 -3.4923,1.0179 -5.6348,0.3816 -1.2664,-0.376 -2.6971,-1.5724 -3.0511,-2.5512 -0.1036,-0.2865 -0.2262,-0.2926 -0.6259,-0.031 -1.6133,1.0551 -3.9805,2.2931 -5.3124,2.7783 -3.2045,1.1672 -7.1579,0.5507 -8.5509,-1.3335 l -0.5903,-0.7983 -1.2238,0.7491 c -3.1246,1.9126 -7.5052,2.5576 -9.6905,1.4268 -1.3209,-0.6835 -2.1336,-1.8529 -2.3663,-3.405 -0.099,-0.6587 -0.2706,-1.1976 -0.3819,-1.1976 -0.1112,0 -0.4909,0.3082 -0.8437,0.685 -1.1393,1.2168 -4.3891,3.211 -6.2437,3.8314 -4.3168,1.4441 -8.0424,0.1949 -8.8532,-2.9684 -0.1823,-0.7114 -0.3977,-1.2593 -0.4786,-1.2177 -8.2088,4.2188 -13.1666,5.5617 -17.3451,4.6983 -7.2318,-1.4943 -8.5363,-7.633 -3.2721,-15.3969 3.43,-5.0586 8.1226,-8.1393 12.5368,-8.2303 4.2661,-0.088 6.1851,2.8612 4.6067,7.0798 -1.4639,3.9129 -6.6553,7.7738 -11.3995,8.4781 l -1.2322,0.183 -0.173,0.9219 c -0.2449,1.3054 0.055,2.3726 0.8414,2.9909 1.4773,1.162 5.3481,0.4499 9.169,-1.6869 4.0877,-2.286 9.2494,-6.7459 10.2254,-8.8353 2.1729,-4.6512 10.3391,-19.4528 12.6199,-22.8741 1.9649,-2.9472 2.9544,-3.913 4.6877,-4.575 2.2454,-0.8575 3.8556,0.1204 3.8556,2.3418 0,1.0627 -0.8749,2.8756 -5.2398,10.8581 -4.5459,8.3134 -10.5554,20.346 -10.9601,21.9446 -0.372,1.4696 -0.093,1.8547 1.0954,1.5137 3.1691,-0.9088 8.5727,-5.615 10.728,-9.3431 3.192,-5.5215 7.5241,-8.5901 12.516,-8.8657 1.3396,-0.074 2.6532,0.01 3.3914,0.2166 1.585,0.4437 3.5318,2.2009 3.7762,3.4083 0.1003,0.4954 0.3584,0.9822 0.5736,1.0817 1.6112,0.7453 1.9862,1.0047 2.0682,1.4307 0.051,0.2665 -0.9529,2.6236 -2.2318,5.238 -1.8799,3.8432 -2.328,4.9899 -2.3404,5.9886 l -0.015,1.2352 0.9261,0.077 c 1.132,0.094 3.2883,-1.1349 5.6894,-3.243 2.3304,-2.0459 3.4794,-3.659 6.2257,-8.7403 1.3371,-2.4739 2.6529,-4.8096 2.924,-5.1906 0.7068,-0.9931 1.8337,-1.3742 3.6712,-1.2413 1.7839,0.1291 2.6563,0.7039 2.6563,1.7502 0,0.3631 -1.6536,3.8273 -3.6747,7.698 -3.6147,6.9231 -4.2241,8.2285 -3.8408,8.2285 0.3864,0 2.6593,-1.4351 4.2082,-2.6571 2.9724,-2.3449 4.1289,-3.8334 6.7129,-8.64 3.2167,-5.9836 4.0513,-6.6961 7.4599,-6.3685 1.5037,0.1444 2.3637,0.7781 2.3637,1.7416 0,0.6971 -3.7642,8.1283 -7.3844,14.5783 -1.1774,2.0975 -2.1406,3.9288 -2.1406,4.0695 0,1.0032 6.4569,-2.0079 10.373,-4.8373 1.75083,-1.265 2.80833,-1.8553 3.32363,-1.8553 0.8396,0 1.9138,0.8456 1.9138,1.5065 0,1.6136 -6.83683,5.3607 -15.31743,8.3952 l -3.0144,1.0785 -3.1147,4.959 c -6.6125,10.5277 -11.2414,15.4863 -16.0267,17.1682 -1.6492,0.5797 -2.5036,0.6042 -3.8855,0.1114 z m 3.4676,-4.0874 c 2.3533,-1.2035 5.0029,-4.3759 7.0335,-8.4211 1.4729,-2.9341 1.2858,-3.2801 -1.0497,-1.9405 -2.6054,1.4944 -6.0792,5.1835 -7.6115,8.0833 -1.3391,2.5343 -0.6792,3.458 1.6277,2.2783 z M 118.3645,54.4226 c 2.0798,-1.3888 2.707,-2.2251 5.1929,-6.9235 1.1337,-2.1427 2.4702,-4.3736 2.9701,-4.9576 0.4999,-0.5839 0.8343,-1.1823 0.7432,-1.3297 -0.3028,-0.49 -1.5733,-0.2724 -2.9201,0.5001 -3.9,2.237 -10.6318,12.1845 -9.2087,13.6076 0.4489,0.4489 1.7491,0.087 3.2226,-0.8969 z M 78.7232,47.6843 c 1.4951,-0.7532 3.4914,-2.3885 4.373,-3.5822 0.8778,-1.1886 0.8303,-2.7169 -0.089,-2.8472 -0.9504,-0.1348 -2.84,1.147 -4.3353,2.9408 -1.4368,1.7237 -2.8652,3.8321 -2.8652,4.2293 0,0.3431 1.5421,-0.048 2.916,-0.7407 z M 62.9713,82.624 C 55.2095,80.9339 48.2904,74.9591 45.6194,67.6406 44.6112,64.878 43.0248,58.748 41.9296,53.3822 c -0.7621,-3.7334 -1.4567,-5.8195 -2.0623,-6.1938 -0.1258,-0.078 -0.173,0.4384 -0.1049,1.147 l 0.1238,1.2883 -2.6916,5.648 c -3.9954,8.3841 -5.3958,10.566 -7.4555,11.6168 -1.4222,0.7256 -3.7417,0.6896 -5.2712,-0.082 -1.0729,-0.541 -1.1779,-0.6797 -1.1514,-1.5213 0.017,-0.5465 0.8143,-2.6067 1.945,-5.0271 3.1568,-6.7568 12.4018,-25.1754 13.3068,-26.5105 1.1089,-1.6358 2.3136,-2.186 4.3772,-1.9989 1.8988,0.1722 3.7575,1.0556 3.7575,1.7858 0,0.685 -0.9801,3.23 -2.4839,6.4499 -0.6712,1.437 -1.2203,2.6574 -1.2203,2.712 0,0.2508 2.423,0.059 3.8048,-0.3005 2.1083,-0.5492 3.5885,-1.4764 5.2895,-3.3138 2.9831,-3.2221 3.5133,-7.5609 1.1835,-9.6842 -3.8351,-3.4952 -12.7275,-2.9971 -21.5226,1.2055 -6.4797,3.0962 -10.7971,8.141 -11.8606,13.8587 -0.5183,2.7868 -1.354,3.618 -2.8384,2.8236 -2.234,-1.1956 -1.5337,-5.997 1.651,-11.3196 5.1483,-8.6044 15.656,-14.9768 26.6996,-16.192 9.3582,-1.0298 17.2345,3.5198 17.8697,10.322 0.3469,3.7147 -1.5827,8.0493 -5.1855,11.6487 -2.6104,2.6078 -4.969,3.9861 -7.9877,4.6679 l -1.94,0.4381 0.8512,0.2875 c 1.5709,0.5307 1.8619,1.0923 3.1019,5.988 2.5245,9.9665 4.9471,14.9264 9.4592,19.3659 6.055,5.9576 14.0611,6.1192 19.4354,0.3922 0.7131,-0.7598 2.2084,-2.7055 3.323,-4.3238 1.1145,-1.6182 2.2218,-3.0172 2.4606,-3.1088 2.1176,-0.8126 2.9615,1.5236 1.6137,4.4675 -2.2327,4.877 -6.6161,9.1629 -11.4944,11.2387 -4.1481,1.7652 -9.8251,2.3621 -13.9414,1.4657 z"/>
    </g>

    <!-- Second Crystal -->
    <g id="crystal-right" transform="translate(260, 0)">
        <!-- Top-left main facet -->
        <path id="crystal-right-top" class="crystal-purple" d="M49.775 105.089C54.3828 103.715 61.8069 101.605 70.3434 101.082C65.2222 88.1449 63.986 76.8242 64.9803 66.7442C66.1285 55.1033 70.23 45.3874 74.228 37.1201C75.0811 35.3561 75.9012 33.7135 76.6879 32.1378C77.8017 29.9069 78.8486 27.81 79.8278 25.6916C81.4579 22.1652 82.6674 19.051 83.2791 16.1576C83.8806 13.3125 83.8838 10.7715 83.1727 8.3342C82.4607 5.89352 80.9475 3.26635 78.0704 0.386692C74.3134 -0.587559 70.1448 0.267767 67.0197 3.08162L29.9298 36.4772C27.861 38.34 26.503 40.8642 26.0879 43.6182L22.8899 64.8384C27.9185 69.2873 40.33 82.2201 47.8789 100.165C48.5525 101.766 49.1875 103.408 49.775 105.089Z"/>

        <!-- Lower-left facet -->
        <path id="crystal-right-gold-facet" class="crystal-gold" d="M21.3902 74.5293C21.2153 75.2761 20.9692 76.0051 20.6549 76.7063L1.05225 120.436C-0.961131 124.928 -0.0336421 130.194 3.39276 133.726L34.2418 165.523C49.9952 142.262 47.6984 120.379 40.5026 103.274C35.0465 90.3037 26.777 80.1526 21.3902 74.5293Z"/>

        <!-- Bottom/base section -->
        <path id="crystal-right-base" class="crystal-purple" d="M41.3687 169.269C41.9093 169.355 42.4575 169.407 43.0096 169.424C48.864 169.6 58.7098 170.109 66.6947 171.582C73.2088 172.783 86.1213 176.397 96.747 179.505C104.855 181.877 113.211 175.396 114.387 167.024C115.245 160.917 116.855 154.009 119.821 147.677L119.753 147.702C114.73 133.682 108.34 124.629 101.641 118.849C94.9619 113.086 87.7708 110.397 80.8276 109.42C69.2835 107.795 58.7071 110.832 52.0453 112.791C56.0353 129.428 54.8074 149.004 41.3687 169.269Z"/>

        <!-- Right side facet -->
        <path id="crystal-right-side" class="crystal-purple" d="M124.96 139.034C131.626 128.965 136.375 121.134 138.881 116.888C140.135 114.764 139.907 112.102 138.423 110.133C134.554 105.002 127.152 94.5755 123.12 84.9218C118.973 74.9962 118.355 59.5866 118.319 52.081C118.306 49.2279 117.402 46.4413 115.639 44.1994L91.6762 13.73C91.5918 15.1034 91.3946 16.4659 91.1093 17.8158C90.3118 21.5882 88.8073 25.3437 87.0916 29.0552C86.086 31.2306 84.9238 33.5612 83.7497 35.9157C82.9682 37.4827 82.1814 39.0607 81.432 40.6102C77.5579 48.6212 73.9528 57.3151 72.9451 67.5313C72.011 77.0006 73.2894 88.014 79.0482 101.162C80.0074 101.243 80.9727 101.351 81.9422 101.487C90.2067 102.651 98.8807 105.891 106.866 112.781C113.73 118.704 119.932 127.19 124.96 139.034Z"/>
    </g>
</svg>
